# xmcd CD database file
#
# Track frame offsets:
#	150
#	9032
#	24692
#	42082
#	64770
#	82365
#	104182
#	125625
#	139102
#	148442
#	181385
#
# Disc length: 4440 seconds
#
# Revision: 0
# Processed by: cddbd v1.5.1PL0 Copyright (c) Steve Scherf et al.
# Submitted via: CDex 1.50
#
DISCID=a511560b
DTITLE=BOO - BLAQUE&P.P.
DYEAR=2003
DGENRE=Hip-Hop
TTITLE0=KILL YOUR T.V.
TTITLE1=BOO BOO BREAKS II
TTITLE2=SOULFUL TABOO
TTITLE3=YOU MAKE ME HIGH ON FRIDAY!!! ft.MIRO,KASHI DA HANDSOME
TTITLE4=THIS WAY WILL GO TO DA BEACH
TTITLE5=SMILE IN YOUR FACE ft.MURO(PEANUT BUTTER WOLF MIX)
TTITLE6=MILLION DOLLAR HOTEL
TTITLE7=COME ON BABY
TTITLE8=BEACH@...ONNA
TTITLE9=BONUS TRACK
TTITLE10=CCCD DATA
EXTD=YEAR: 2003
EXTT0=
EXTT1=
EXTT2=
EXTT3=
EXTT4=
EXTT5=
EXTT6=
EXTT7=
EXTT8=
EXTT9=
EXTT10=
PLAYORDER=
